<svg width="352" height="413" viewBox="0 0 352 413" fill="none" xmlns="http://www.w3.org/2000/svg">
<path d="M57.728 346V317.536H46.832V311.44H75.152V317.536H64.256V346H57.728ZM80.432 346.72C78.576 346.72 77.004 346.364 75.716 345.652C74.428 344.94 73.452 343.988 72.788 342.796C72.124 341.604 71.792 340.288 71.792 338.848C71.792 337.648 71.976 336.552 72.344 335.56C72.712 334.568 73.308 333.692 74.132 332.932C74.956 332.172 76.064 331.536 77.456 331.024C78.416 330.672 79.56 330.36 80.888 330.088C82.216 329.816 83.72 329.556 85.4 329.308C87.08 329.06 88.928 328.784 90.944 328.48L88.592 329.776C88.592 328.24 88.224 327.112 87.488 326.392C86.752 325.672 85.52 325.312 83.792 325.312C82.832 325.312 81.832 325.544 80.792 326.008C79.752 326.472 79.024 327.296 78.608 328.48L72.704 326.608C73.36 324.464 74.592 322.72 76.4 321.376C78.208 320.032 80.672 319.36 83.792 319.36C86.08 319.36 88.112 319.712 89.888 320.416C91.664 321.12 93.008 322.336 93.92 324.064C94.432 325.024 94.736 325.984 94.832 326.944C94.928 327.904 94.976 328.976 94.976 330.16V346H89.264V340.672L90.08 341.776C88.816 343.52 87.452 344.78 85.988 345.556C84.524 346.332 82.672 346.72 80.432 346.72ZM81.824 341.584C83.024 341.584 84.036 341.372 84.86 340.948C85.684 340.524 86.34 340.04 86.828 339.496C87.316 338.952 87.648 338.496 87.824 338.128C88.16 337.424 88.356 336.604 88.412 335.668C88.468 334.732 88.496 333.952 88.496 333.328L90.416 333.808C88.48 334.128 86.912 334.396 85.712 334.612C84.512 334.828 83.544 335.024 82.808 335.2C82.072 335.376 81.424 335.568 80.864 335.776C80.224 336.032 79.708 336.308 79.316 336.604C78.924 336.9 78.636 337.224 78.452 337.576C78.268 337.928 78.176 338.32 78.176 338.752C78.176 339.344 78.324 339.852 78.62 340.276C78.916 340.7 79.336 341.024 79.88 341.248C80.424 341.472 81.072 341.584 81.824 341.584ZM99.296 346V310.72H105.824V346H99.296ZM111.104 346V310.72H117.632V346H111.104ZM125.744 357.52L130.736 343.792L130.832 347.824L119.552 320.08H126.32L133.904 339.712H132.368L139.904 320.08H146.432L131.792 357.52H125.744ZM155.072 346V311.44H161.6V346H155.072ZM176.528 346.72C173.264 346.72 170.628 345.98 168.62 344.5C166.612 343.02 165.392 340.928 164.96 338.224L171.632 337.216C171.904 338.432 172.508 339.384 173.444 340.072C174.38 340.76 175.568 341.104 177.008 341.104C178.192 341.104 179.104 340.876 179.744 340.42C180.384 339.964 180.704 339.328 180.704 338.512C180.704 338 180.576 337.588 180.32 337.276C180.064 336.964 179.492 336.656 178.604 336.352C177.716 336.048 176.336 335.648 174.464 335.152C172.352 334.608 170.664 334 169.4 333.328C168.136 332.656 167.224 331.852 166.664 330.916C166.104 329.98 165.824 328.848 165.824 327.52C165.824 325.856 166.248 324.412 167.096 323.188C167.944 321.964 169.14 321.02 170.684 320.356C172.228 319.692 174.048 319.36 176.144 319.36C178.176 319.36 179.976 319.672 181.544 320.296C183.112 320.92 184.38 321.808 185.348 322.96C186.316 324.112 186.912 325.472 187.136 327.04L180.464 328.24C180.352 327.28 179.936 326.52 179.216 325.96C178.496 325.4 177.52 325.072 176.288 324.976C175.088 324.896 174.124 325.056 173.396 325.456C172.668 325.856 172.304 326.432 172.304 327.184C172.304 327.632 172.46 328.008 172.772 328.312C173.084 328.616 173.732 328.928 174.716 329.248C175.7 329.568 177.2 329.984 179.216 330.496C181.184 331.008 182.764 331.604 183.956 332.284C185.148 332.964 186.016 333.78 186.56 334.732C187.104 335.684 187.376 336.832 187.376 338.176C187.376 340.832 186.416 342.92 184.496 344.44C182.576 345.96 179.92 346.72 176.528 346.72ZM190.736 346V310.72H197.264V346H190.736ZM209.264 346.72C207.408 346.72 205.836 346.364 204.548 345.652C203.26 344.94 202.284 343.988 201.62 342.796C200.956 341.604 200.624 340.288 200.624 338.848C200.624 337.648 200.808 336.552 201.176 335.56C201.544 334.568 202.14 333.692 202.964 332.932C203.788 332.172 204.896 331.536 206.288 331.024C207.248 330.672 208.392 330.36 209.72 330.088C211.048 329.816 212.552 329.556 214.232 329.308C215.912 329.06 217.76 328.784 219.776 328.48L217.424 329.776C217.424 328.24 217.056 327.112 216.32 326.392C215.584 325.672 214.352 325.312 212.624 325.312C211.664 325.312 210.664 325.544 209.624 326.008C208.584 326.472 207.856 327.296 207.44 328.48L201.536 326.608C202.192 324.464 203.424 322.72 205.232 321.376C207.04 320.032 209.504 319.36 212.624 319.36C214.912 319.36 216.944 319.712 218.72 320.416C220.496 321.12 221.84 322.336 222.752 324.064C223.264 325.024 223.568 325.984 223.664 326.944C223.76 327.904 223.808 328.976 223.808 330.16V346H218.096V340.672L218.912 341.776C217.648 343.52 216.284 344.78 214.82 345.556C213.356 346.332 211.504 346.72 209.264 346.72ZM210.656 341.584C211.856 341.584 212.868 341.372 213.692 340.948C214.516 340.524 215.172 340.04 215.66 339.496C216.148 338.952 216.48 338.496 216.656 338.128C216.992 337.424 217.188 336.604 217.244 335.668C217.3 334.732 217.328 333.952 217.328 333.328L219.248 333.808C217.312 334.128 215.744 334.396 214.544 334.612C213.344 334.828 212.376 335.024 211.64 335.2C210.904 335.376 210.256 335.568 209.696 335.776C209.056 336.032 208.54 336.308 208.148 336.604C207.756 336.9 207.468 337.224 207.284 337.576C207.1 337.928 207.008 338.32 207.008 338.752C207.008 339.344 207.156 339.852 207.452 340.276C207.748 340.7 208.168 341.024 208.712 341.248C209.256 341.472 209.904 341.584 210.656 341.584ZM258.848 346V330.688C258.848 328.976 258.444 327.644 257.636 326.692C256.828 325.74 255.712 325.264 254.288 325.264C253.376 325.264 252.584 325.476 251.912 325.9C251.24 326.324 250.716 326.916 250.34 327.676C249.964 328.436 249.776 329.312 249.776 330.304L247.04 328.48C247.04 326.704 247.46 325.136 248.3 323.776C249.14 322.416 250.268 321.356 251.684 320.596C253.1 319.836 254.672 319.456 256.4 319.456C259.36 319.456 261.596 320.332 263.108 322.084C264.62 323.836 265.376 326.128 265.376 328.96V346H258.848ZM227.6 346V320.08H233.36V328.672H234.176V346H227.6ZM243.248 346V330.688C243.248 328.976 242.844 327.644 242.036 326.692C241.228 325.74 240.112 325.264 238.688 325.264C237.328 325.264 236.236 325.732 235.412 326.668C234.588 327.604 234.176 328.816 234.176 330.304L231.44 328.384C231.44 326.688 231.864 325.168 232.712 323.824C233.56 322.48 234.7 321.416 236.132 320.632C237.564 319.848 239.168 319.456 240.944 319.456C242.976 319.456 244.644 319.888 245.948 320.752C247.252 321.616 248.216 322.768 248.84 324.208C249.464 325.648 249.776 327.232 249.776 328.96V346H243.248ZM269.696 316.48V310.72H276.224V316.48H269.696ZM269.696 346V320.08H276.224V346H269.696ZM292.448 346.72C289.76 346.72 287.456 346.12 285.536 344.92C283.616 343.72 282.144 342.088 281.12 340.024C280.096 337.96 279.584 335.632 279.584 333.04C279.584 330.416 280.116 328.072 281.18 326.008C282.244 323.944 283.744 322.32 285.68 321.136C287.616 319.952 289.904 319.36 292.544 319.36C295.6 319.36 298.164 320.132 300.236 321.676C302.308 323.22 303.632 325.328 304.208 328L297.68 329.728C297.296 328.384 296.628 327.336 295.676 326.584C294.724 325.832 293.648 325.456 292.448 325.456C291.072 325.456 289.944 325.788 289.064 326.452C288.184 327.116 287.536 328.02 287.12 329.164C286.704 330.308 286.496 331.6 286.496 333.04C286.496 335.296 286.996 337.124 287.996 338.524C288.996 339.924 290.48 340.624 292.448 340.624C293.92 340.624 295.04 340.288 295.808 339.616C296.576 338.944 297.152 337.984 297.536 336.736L304.208 338.128C303.472 340.88 302.08 343 300.032 344.488C297.984 345.976 295.456 346.72 292.448 346.72Z" fill="url(#paint0_linear_1_1125)"/>
<rect x="152" y="364" width="48" height="2" rx="1" fill="#FCD400" fill-opacity="0.4"/>
<g opacity="0.8">
<path d="M38.9966 409V408.644L40.0366 408.512V402.97H39.7876C39.0422 402.97 38.5181 403.002 38.2153 403.067L38.0835 404.283H37.6392V402.452H44.0015V404.283H43.5523L43.4204 403.067C43.1502 403.009 42.6164 402.979 41.8189 402.979H41.5796V408.512L42.6196 408.644V409H38.9966ZM47.3237 409V408.639L48.1636 408.512V402.94L47.3237 402.809V402.452H50.5415V402.809L49.7017 402.94V405.362H52.3774V402.94L51.5376 402.809V402.452H54.7651V402.809L53.9204 402.94V408.512L54.7651 408.639V409H51.5376V408.639L52.3774 408.512V405.899H49.7017V408.512L50.5415 408.639V409H47.3237ZM58.1021 408.644L58.9419 408.512V402.936L58.1021 402.809V402.452H63.6782V404.117H63.2339L63.0776 403.058C62.7131 403.012 62.1857 402.989 61.4956 402.989H60.48V405.392H62.1939L62.3452 404.669H62.7798V406.681H62.3452L62.1939 405.938H60.48V408.463H61.7153C62.5552 408.463 63.1053 408.437 63.3657 408.385L63.644 407.174H64.0884L63.9956 409H58.1021V408.644ZM73.6333 406.993H74.063L74.2827 408.043C74.4194 408.202 74.6261 408.336 74.9028 408.443C75.1795 408.551 75.466 408.604 75.7622 408.604C76.6965 408.604 77.1636 408.22 77.1636 407.452C77.1636 407.211 77.0749 407.008 76.8975 406.842C76.7201 406.676 76.4409 406.528 76.0601 406.397C75.5002 406.212 75.0973 406.061 74.8516 405.946C74.6058 405.83 74.3983 405.694 74.229 405.538C74.0597 405.382 73.9246 405.192 73.8237 404.969C73.7228 404.746 73.6724 404.472 73.6724 404.146C73.6724 403.57 73.8685 403.132 74.2607 402.831C74.653 402.529 75.2267 402.379 75.9819 402.379C76.5288 402.379 77.1343 402.449 77.7983 402.589V404.146H77.3638L77.1441 403.248C76.812 403.007 76.4246 402.887 75.9819 402.887C75.5816 402.887 75.2739 402.961 75.0591 403.109C74.8442 403.257 74.7368 403.484 74.7368 403.79C74.7368 404.008 74.8263 404.194 75.0054 404.349C75.1844 404.504 75.4644 404.641 75.8452 404.762C76.5907 405.006 77.1025 405.218 77.3809 405.399C77.6592 405.58 77.8716 405.803 78.0181 406.07C78.1646 406.337 78.2378 406.651 78.2378 407.013C78.2378 408.403 77.4191 409.098 75.7817 409.098C75.4074 409.098 75.0257 409.066 74.6367 409.002C74.2477 408.939 73.9133 408.855 73.6333 408.751V406.993ZM83.7524 408.644V409H81.7603V408.644L82.2485 408.512L84.5776 402.398H85.9937L88.313 408.512L88.811 408.644V409H85.896V408.644L86.6528 408.512L86.0278 406.817H83.5132L82.9126 408.512L83.7524 408.644ZM84.7925 403.385L83.7134 406.28H85.8423L84.7925 403.385ZM95.8638 409.098C94.7668 409.098 93.9107 408.806 93.2954 408.224C92.6802 407.641 92.3726 406.834 92.3726 405.802C92.3726 404.682 92.6663 403.832 93.2539 403.25C93.8415 402.669 94.7098 402.379 95.8589 402.379C96.6174 402.379 97.4035 402.488 98.2173 402.706L98.2466 404.278H97.8071L97.6704 403.331C97.2407 403.038 96.7411 402.892 96.1714 402.892C95.4162 402.892 94.8644 403.127 94.5161 403.597C94.1678 404.068 93.9937 404.798 93.9937 405.787C93.9937 406.702 94.176 407.398 94.5405 407.877C94.9051 408.355 95.4357 408.595 96.1323 408.595C96.5002 408.595 96.8216 408.546 97.0967 408.448C97.3718 408.351 97.5874 408.235 97.7437 408.102L97.8999 407.027H98.3442L98.3149 408.688C98.022 408.801 97.6411 408.898 97.1724 408.978C96.7036 409.058 96.2674 409.098 95.8638 409.098ZM104.66 406.227V408.512L105.5 408.644V409H102.34V408.644L103.117 408.512V402.936L102.277 402.809V402.452H105.407C106.37 402.452 107.09 402.6 107.565 402.896C108.04 403.193 108.278 403.655 108.278 404.283C108.278 405.221 107.838 405.823 106.959 406.09L108.708 408.512L109.416 408.644V409H107.296L105.47 406.227H104.66ZM106.754 404.293C106.754 403.805 106.653 403.465 106.452 403.275C106.25 403.084 105.88 402.989 105.343 402.989H104.66V405.689H105.368C105.869 405.689 106.225 405.585 106.437 405.377C106.649 405.169 106.754 404.807 106.754 404.293ZM112.499 408.644L113.338 408.512V402.936L112.499 402.809V402.452H118.075V404.117H117.63L117.474 403.058C117.11 403.012 116.582 402.989 115.892 402.989H114.876V405.392H116.59L116.742 404.669H117.176V406.681H116.742L116.59 405.938H114.876V408.463H116.112C116.952 408.463 117.502 408.437 117.762 408.385L118.041 407.174H118.485L118.392 409H112.499V408.644ZM127.11 405.729C127.11 404.785 126.937 404.092 126.592 403.651C126.247 403.21 125.686 402.989 124.908 402.989H124.546V408.443C124.859 408.469 125.142 408.482 125.396 408.482C125.819 408.482 126.154 408.391 126.399 408.209C126.645 408.027 126.825 407.741 126.939 407.352C127.053 406.963 127.11 406.422 127.11 405.729ZM125.284 402.452C126.459 402.452 127.327 402.718 127.889 403.25C128.45 403.783 128.731 404.596 128.731 405.689C128.731 406.812 128.462 407.648 127.925 408.197C127.388 408.745 126.576 409.02 125.489 409.02L123.296 409H122.173V408.644L123.013 408.512V402.936L122.173 402.809V402.452H125.284ZM144.584 408.658C144.181 408.792 143.712 408.898 143.178 408.978C142.644 409.058 142.164 409.098 141.738 409.098C141.025 409.098 140.402 408.967 139.87 408.707C139.338 408.447 138.928 408.067 138.64 407.569C138.352 407.071 138.208 406.482 138.208 405.802C138.208 404.705 138.521 403.86 139.147 403.268C139.774 402.675 140.668 402.379 141.831 402.379C142.114 402.379 142.372 402.39 142.604 402.413C142.837 402.436 143.055 402.467 143.256 402.506C143.458 402.545 143.829 402.641 144.37 402.794V404.298H143.93L143.813 403.448C143.556 403.272 143.273 403.136 142.963 403.038C142.654 402.94 142.335 402.892 142.006 402.892C141.248 402.892 140.695 403.128 140.349 403.6C140.002 404.072 139.829 404.802 139.829 405.792C139.829 406.713 140.012 407.411 140.378 407.884C140.744 408.358 141.274 408.595 141.967 408.595C142.345 408.595 142.705 408.538 143.046 408.424V406.529L142.207 406.402V406.041H145.224V406.402L144.584 406.529V408.658ZM148.668 408.644L149.508 408.512V402.936L148.668 402.809V402.452H154.245V404.117H153.8L153.644 403.058C153.279 403.012 152.752 402.989 152.062 402.989H151.046V405.392H152.76L152.912 404.669H153.346V406.681H152.912L152.76 405.938H151.046V408.463H152.282C153.122 408.463 153.672 408.437 153.932 408.385L154.21 407.174H154.655L154.562 409H148.668V408.644ZM160.277 405.719C160.277 406.757 160.419 407.499 160.704 407.943C160.989 408.387 161.441 408.609 162.059 408.609C162.674 408.609 163.124 408.386 163.409 407.94C163.694 407.494 163.836 406.754 163.836 405.719C163.836 404.687 163.694 403.954 163.409 403.521C163.124 403.089 162.674 402.872 162.059 402.872C161.441 402.872 160.989 403.089 160.704 403.521C160.419 403.954 160.277 404.687 160.277 405.719ZM158.656 405.719C158.656 403.492 159.79 402.379 162.059 402.379C163.179 402.379 164.025 402.661 164.598 403.226C165.171 403.791 165.458 404.622 165.458 405.719C165.458 406.829 165.168 407.669 164.588 408.241C164.009 408.812 163.166 409.098 162.059 409.098C160.956 409.098 160.112 408.813 159.53 408.243C158.947 407.674 158.656 406.832 158.656 405.719ZM173.252 409H172.984L170.567 403.468V408.512L171.446 408.644V409H169.117V408.644L169.957 408.512V402.936L169.117 402.809V402.452H171.69L173.56 406.759L175.469 402.452H178.096V402.809L177.256 402.936V408.512L178.096 408.644V409H174.839V408.644L175.718 408.512V403.468L173.252 409ZM181.555 408.644L182.395 408.512V402.936L181.555 402.809V402.452H187.131V404.117H186.687L186.531 403.058C186.166 403.012 185.639 402.989 184.949 402.989H183.933V405.392H185.647L185.798 404.669H186.233V406.681H185.798L185.647 405.938H183.933V408.463H185.168C186.008 408.463 186.558 408.437 186.819 408.385L187.097 407.174H187.542L187.449 409H181.555V408.644ZM192.568 409V408.644L193.608 408.512V402.97H193.359C192.613 402.97 192.089 403.002 191.787 403.067L191.655 404.283H191.21V402.452H197.573V404.283H197.124L196.992 403.067C196.722 403.009 196.188 402.979 195.39 402.979H195.151V408.512L196.191 408.644V409H192.568ZM203.278 406.227V408.512L204.118 408.644V409H200.958V408.644L201.735 408.512V402.936L200.895 402.809V402.452H204.025C204.988 402.452 205.708 402.6 206.183 402.896C206.658 403.193 206.896 403.655 206.896 404.283C206.896 405.221 206.457 405.823 205.578 406.09L207.326 408.512L208.034 408.644V409H205.915L204.088 406.227H203.278ZM205.373 404.293C205.373 403.805 205.272 403.465 205.07 403.275C204.868 403.084 204.499 402.989 203.961 402.989H203.278V405.689H203.986C204.487 405.689 204.844 405.585 205.055 405.377C205.267 405.169 205.373 404.807 205.373 404.293ZM215.042 406.422V408.512L216.083 408.644V409H212.459V408.644L213.5 408.512V406.451L211.507 402.936L210.77 402.809V402.452H214.139V402.809L213.26 402.936L214.754 405.68L216.2 402.936L215.399 402.809V402.452H217.625V402.809L216.932 402.936L215.042 406.422ZM228.054 405.719C228.054 406.757 228.197 407.499 228.481 407.943C228.766 408.387 229.218 408.609 229.836 408.609C230.452 408.609 230.902 408.386 231.187 407.94C231.471 407.494 231.614 406.754 231.614 405.719C231.614 404.687 231.471 403.954 231.187 403.521C230.902 403.089 230.452 402.872 229.836 402.872C229.218 402.872 228.766 403.089 228.481 403.521C228.197 403.954 228.054 404.687 228.054 405.719ZM226.433 405.719C226.433 403.492 227.568 402.379 229.836 402.379C230.956 402.379 231.803 402.661 232.375 403.226C232.948 403.791 233.235 404.622 233.235 405.719C233.235 406.829 232.945 407.669 232.366 408.241C231.786 408.812 230.943 409.098 229.836 409.098C228.733 409.098 227.89 408.813 227.307 408.243C226.724 407.674 226.433 406.832 226.433 405.719ZM239.272 406.207V408.512L240.361 408.644V409H236.958V408.644L237.734 408.512V402.936L236.894 402.809V402.452H242.353V404.215H241.894L241.738 403.058C241.578 403.035 241.315 403.018 240.947 403.006C240.579 402.995 240.289 402.989 240.078 402.989H239.272V405.67H240.869L241.02 404.84H241.455V407.047H241.02L240.869 406.207H239.272ZM253.509 406.207V408.512L254.598 408.644V409H251.195V408.644L251.971 408.512V402.936L251.131 402.809V402.452H256.59V404.215H256.131L255.975 403.058C255.816 403.035 255.552 403.018 255.184 403.006C254.816 402.995 254.527 402.989 254.315 402.989H253.509V405.67H255.106L255.257 404.84H255.692V407.047H255.257L255.106 406.207H253.509ZM262.784 408.512L263.624 408.639V409H260.406V408.639L261.246 408.512V402.94L260.406 402.809V402.452H263.624V402.809L262.784 402.94V408.512ZM272.6 402.936L271.721 402.809V402.452H274.05V402.809L273.21 402.936V409H272.639L268.601 403.736V408.512L269.48 408.644V409H267.151V408.644L267.991 408.512V402.936L267.151 402.809V402.452H269.392L272.6 406.637V402.936ZM279.272 408.644V409H277.28V408.644L277.768 408.512L280.097 402.398H281.513L283.833 408.512L284.331 408.644V409H281.416V408.644L282.172 408.512L281.547 406.817H279.033L278.432 408.512L279.272 408.644ZM280.312 403.385L279.233 406.28H281.362L280.312 403.385ZM293.043 402.936L292.165 402.809V402.452H294.494V402.809L293.654 402.936V409H293.083L289.044 403.736V408.512L289.923 408.644V409H287.594V408.644L288.434 408.512V402.936L287.594 402.809V402.452H289.835L293.043 406.637V402.936ZM301.605 409.098C300.508 409.098 299.652 408.806 299.037 408.224C298.421 407.641 298.114 406.834 298.114 405.802C298.114 404.682 298.408 403.832 298.995 403.25C299.583 402.669 300.451 402.379 301.6 402.379C302.359 402.379 303.145 402.488 303.958 402.706L303.988 404.278H303.548L303.412 403.331C302.982 403.038 302.482 402.892 301.913 402.892C301.157 402.892 300.606 403.127 300.257 403.597C299.909 404.068 299.735 404.798 299.735 405.787C299.735 406.702 299.917 407.398 300.282 407.877C300.646 408.355 301.177 408.595 301.874 408.595C302.241 408.595 302.563 408.546 302.838 408.448C303.113 408.351 303.329 408.235 303.485 408.102L303.641 407.027H304.085L304.056 408.688C303.763 408.801 303.382 408.898 302.914 408.978C302.445 409.058 302.009 409.098 301.605 409.098ZM308.018 408.644L308.858 408.512V402.936L308.018 402.809V402.452H313.594V404.117H313.15L312.994 403.058C312.629 403.012 312.102 402.989 311.412 402.989H310.396V405.392H312.11L312.261 404.669H312.696V406.681H312.261L312.11 405.938H310.396V408.463H311.631C312.471 408.463 313.021 408.437 313.282 408.385L313.56 407.174H314.004L313.912 409H308.018V408.644Z" fill="#FFE16D"/>
</g>
<g opacity="0.5" filter="url(#filter0_f_1_1125)">
<rect x="64" y="64" width="224" height="224" rx="12" fill="#FCD400" fill-opacity="0.1"/>
</g>
<g filter="url(#filter1_d_1_1125)">
<g clip-path="url(#clip0_1_1125)">
<path d="M152 136C128 136 120 168 120 184C120 216 152 240 184 240C208 240 224 224 232 208" stroke="url(#paint1_linear_1_1125)" stroke-width="9.6" stroke-linecap="round"/>
<path d="M168 128H216H168ZM192 128V224V128Z" fill="black"/>
<path d="M168 128H216H168M192 128V224V128" stroke="url(#paint2_linear_1_1125)" stroke-width="16" stroke-linecap="round"/>
</g>
</g>
<defs>
<filter id="filter0_f_1_1125" x="0" y="0" width="352" height="352" filterUnits="userSpaceOnUse" color-interpolation-filters="sRGB">
<feFlood flood-opacity="0" result="BackgroundImageFix"/>
<feBlend mode="normal" in="SourceGraphic" in2="BackgroundImageFix" result="shape"/>
<feGaussianBlur stdDeviation="32" result="effect1_foregroundBlur_1_1125"/>
</filter>
<filter id="filter1_d_1_1125" x="76" y="86" width="200" height="200" filterUnits="userSpaceOnUse" color-interpolation-filters="sRGB">
<feFlood flood-opacity="0" result="BackgroundImageFix"/>
<feColorMatrix in="SourceAlpha" type="matrix" values="0 0 0 0 0 0 0 0 0 0 0 0 0 0 0 0 0 0 127 0" result="hardAlpha"/>
<feOffset dy="10"/>
<feGaussianBlur stdDeviation="10"/>
<feComposite in2="hardAlpha" operator="out"/>
<feColorMatrix type="matrix" values="0 0 0 0 0 0 0 0 0 0 0 0 0 0 0 0 0 0 0.3 0"/>
<feBlend mode="normal" in2="BackgroundImageFix" result="effect1_dropShadow_1_1125"/>
<feBlend mode="normal" in="SourceGraphic" in2="effect1_dropShadow_1_1125" result="shape"/>
</filter>
<linearGradient id="paint0_linear_1_1125" x1="100.764" y1="245.987" x2="264.181" y2="395.902" gradientUnits="userSpaceOnUse">
<stop stop-color="#FFE16D"/>
<stop offset="0.5" stop-color="#705D00"/>
<stop offset="1" stop-color="#FCD400"/>
</linearGradient>
<linearGradient id="paint1_linear_1_1125" x1="120" y1="136" x2="223.715" y2="247.693" gradientUnits="userSpaceOnUse">
<stop stop-color="#FFE16D"/>
<stop offset="0.5" stop-color="#FCD400"/>
<stop offset="1" stop-color="#705D00"/>
</linearGradient>
<linearGradient id="paint2_linear_1_1125" x1="168" y1="128" x2="244.8" y2="166.4" gradientUnits="userSpaceOnUse">
<stop stop-color="#FFE16D"/>
<stop offset="0.5" stop-color="#FCD400"/>
<stop offset="1" stop-color="#705D00"/>
</linearGradient>
<clipPath id="clip0_1_1125">
<rect width="160" height="160" fill="white" transform="translate(96 96)"/>
</clipPath>
</defs>
</svg>
