<svg xmlns="http://www.w3.org/2000/svg" shape-rendering="geometricPrecision" text-rendering="geometricPrecision" image-rendering="optimizeQuality" fill-rule="evenodd" clip-rule="evenodd" viewBox="0 0 512 500.186"><path fill="#645E50" fill-rule="nonzero" d="M177.607 62.998a5.369 5.369 0 01-9.003 5.849c-1.792-2.762-3.174-5.633-4.097-8.577-.928-2.963-1.415-6.002-1.415-9.083 0-14.804 10.909-27.915 28.539-37.139C208.211 5.368 230.984 0 256 0s47.789 5.368 64.369 14.048c17.63 9.224 28.539 22.335 28.539 37.139 0 1.457-.116 2.931-.337 4.414l-.004.021a30.719 30.719 0 01-.977 4.359 5.385 5.385 0 01-10.307-3.116c.283-.94.502-1.894.643-2.841a19.05 19.05 0 00.208-2.837c0-10.49-8.691-20.283-22.732-27.63-15.089-7.898-36.085-12.783-59.402-12.783s-44.313 4.885-59.402 12.783c-14.041 7.347-22.732 17.14-22.732 27.63 0 2.016.313 3.986.909 5.886.636 2.029 1.592 4.013 2.832 5.925zm268.772 199.041c10.473 54.056 21.868 112.831 60.047 131.367a10.263 10.263 0 013.021 2.286c3.66 4.044 3.347 10.292-.697 13.951-39.875 36.143-61.568 15.117-85.858-8.427-18.101-17.547-38.122-36.938-75.073-18.498a131.55 131.55 0 003.891 14.592c2.918 8.83 6.674 16.951 11.266 24.341a101.778 101.778 0 0016.321 20.068c3.549 3.377 4.041 8.766 1.389 12.696-4.676 7.319-10.982 13.733-18.552 19.259-24.883 18.161-64.129 26.702-103.49 26.509-39.177-.193-78.993-9.017-105.215-25.58-8.972-5.667-16.482-12.307-22.025-19.901a9.858 9.858 0 01-1.658-7.947 9.835 9.835 0 013.829-5.85l.388-.308c8.317-5.46 15.011-12.771 20.268-21.704 5.467-9.295 9.466-20.446 12.185-33.184l.343-1.66c-38.605-20.667-59.134-.784-77.651 17.167-24.29 23.544-45.983 44.57-85.858 8.427-4.044-3.659-4.357-9.907-.697-13.951a10.037 10.037 0 013.026-2.277c38.174-18.545 49.569-77.32 60.042-131.376l3.281-17.017c5.391-28.759 11.701-62.421 37.61-81.069 45.237-32.56 82.722 1.99 111.603 32.08a78.326 78.326 0 0110.936-5.393c21.691-8.641 45.308-6.55 65.292 4.916 28.82-29.975 66.148-63.992 111.145-31.603 25.909 18.648 32.219 52.31 37.61 81.069l3.281 17.017zM256 54.783c34.806 0 63.115 28.305 63.115 63.113S290.808 181.011 256 181.011c-34.84 0-63.113-28.295-63.113-63.115 0-34.832 28.281-63.113 63.113-63.113zM132.428 389.322a5.381 5.381 0 0110.058 3.827c-4.062 10.628-10.25 19.2-18.451 25.804-8.09 6.512-18.099 11.037-29.909 13.669a5.365 5.365 0 01-2.315-10.478c10.163-2.265 18.696-6.094 25.492-11.564 6.683-5.383 11.757-12.445 15.125-21.258zm237.086 3.827a5.381 5.381 0 0110.058-3.827c3.368 8.813 8.442 15.875 15.125 21.258 6.796 5.47 15.329 9.299 25.492 11.564a5.365 5.365 0 01-2.315 10.478c-11.81-2.632-21.819-7.157-29.909-13.669-8.201-6.604-14.389-15.176-18.451-25.804z"/><path fill="#FCF4DB" d="M502.123 402.32c-44.896-21.798-55.704-88.558-67.186-147.234-5.574-28.487-10.18-65.086-35.224-83.111-37.609-27.07-70.891 2.188-96.966 29.124 12.374 9.303 22.715 22.532 29.338 39.155 12.29 30.838 12.166 59.053 12.044 87.041-.066 14.939-.131 29.814 1.879 44.772 82.044-39.668 90.594 89.644 156.115 30.253zm-492.246 0c44.896-21.798 55.704-88.558 67.186-147.234 5.574-28.487 10.18-65.086 35.224-83.111 37.876-27.264 71.369 2.61 97.525 29.702-7.9 6.101-15.207 13.968-21.564 23.705-18.44 28.237-18.256 63.846-18.07 99.535.086 16.509.174 33.042-1.716 48.41-84.334-43.474-92.414 88.971-158.585 28.993z"/><circle fill="#FCD97D" cx="256" cy="117.897" r="53.193"/><path fill="#50A9B7" d="M196.541 230.768c35.979-55.093 104.154-42.59 126.361 13.129 21.941 55.052 1.895 103.59 19.391 156.513 6.322 19.124 16.346 35.313 30.183 48.478-36.414 57.642-194.589 52.742-233.087 0 19.221-12.615 30.853-33.663 36.714-61.123 10.804-50.621-7.043-114.918 20.438-156.997z"/><path fill="#356F79" d="M255.513 278.92c5.539-5.779 9.418-10.771 17.958-11.753 16.029-1.843 30.768 14.567 22.673 30.723-2.306 4.603-6.994 10.073-12.182 15.443-5.696 5.895-11.995 11.671-16.411 16.051l-12.038 11.941-9.946-9.58c-11.966-11.526-31.479-26.031-32.122-44.004-.451-12.59 9.484-20.654 20.91-20.505 10.213.133 14.507 5.215 21.158 11.683v.001z"/></svg>