<svg xmlns="http://www.w3.org/2000/svg" shape-rendering="geometricPrecision" text-rendering="geometricPrecision" image-rendering="optimizeQuality" fill-rule="evenodd" clip-rule="evenodd" viewBox="0 0 477 511.467"><path fill="#5C6973" fill-rule="nonzero" d="M125.539 42.542c.555-.529 1.113-1.065 1.667-1.608l.342-.363c2.587-2.558 5.028-5.194 6.967-7.768 2.556-3.394 4.409-6.859 6.245-10.292 2.646-4.948 5.268-9.852 9.689-14.884 2.034-2.317 4.296-4.414 6.721-5.771 3.578-2.004 7.402-2.578 11.373-.759 2.698 1.234 5.003 3.453 6.906 6.631 1.404 2.346 2.654 5.316 3.743 8.896 20.955 54.679 62.872 74.992 98.405 92.207 17.352 8.407 33.272 16.121 45.406 26.861 8.477 7.503 16.392 17.004 23.452 28.038 3.476 5.437 6.749 11.253 9.784 17.391-3.394 10.527-5.155 21.581-6.638 32.603-36.995-55.136-75.729-72.518-115.784-90.483-26.183-11.745-52.964-23.759-79.868-47.373-10.848-9.522-19.639-19.777-26.65-30.551a144.785 144.785 0 01-1.76-2.775z"/><path fill="#AEC6D2" d="M353.362 191.704c-9.314-21.04-21.45-38.658-35.058-50.701C282.2 109.048 204.57 102.851 172.515 19.071c-1.904-6.412-4.205-10.281-6.918-11.524-3.204-1.466-6.727 1.241-9.81 4.751-7.07 8.045-9.289 16.406-15.601 24.786-3.002 3.986-6.852 7.894-10.702 11.49 6.627 9.587 14.714 18.736 24.465 27.294 26.904 23.614 53.685 35.628 79.868 47.373 40.055 17.965 78.789 35.347 115.784 90.483.993-7.381 2.113-14.778 3.761-22.02z"/><path fill="#5C6973" fill-rule="nonzero" d="M461.596 201.929c-1.818 1.344-3.497 2.543-5.142 3.72-9.804 7.004-18.535 13.242-21.102 25.043-1.677 7.712 1.903 18.59 6.028 31.121 5.071 15.403 10.882 33.049 10.016 53.102-1.58 36.566-14.561 65.783-38.027 85.862-22.813 19.522-55.351 30.137-96.735 30.167-11.031.009-22.003-.498-32.886-1.001-27.545-1.273-54.553-2.52-74.845 4.811-15.161 5.478-27.594 14.942-38.591 27.23-11.307 12.639-21.177 28.347-30.915 45.835a7.099 7.099 0 01-7.15 3.585c-16.192-1.529-27.212-7.045-33.833-16.693-3.949-5.756-6.13-12.799-6.729-21.175-10.862 7.07-22.196 8.1-32.597 4.963-7.858-2.372-15.049-7.168-20.966-13.541-5.752-6.195-10.353-13.945-13.206-22.424-5.938-17.633-4.42-38.453 9.705-55.229-11.856-7.248-21.174-16.191-27.168-27.345-7.408-13.784-9.625-30.607-5.146-51.332a7.111 7.111 0 0112.666-2.726c24.39 30.454 54.042 44.22 87.655 45.382 29.119 1.005 61.401-7.289 95.969-22.329-29.487-7.228-54.924-19.301-74.873-37.926-24.56-22.93-40.593-55.516-45.369-100.827-12.857-28.013-20.116-55.805-20.885-83.328-.786-27.989 5.153-55.59 18.734-82.736l.863-1.751C80.733 14.922 87.92.668 98.53 1.082c5.669.221 11.319 5.503 12.851 10.777 3.743 11.542 8.961 22.768 15.918 33.458 7.011 10.774 15.802 21.029 26.65 30.551 26.904 23.614 53.685 35.628 79.868 47.373 40.055 17.965 78.789 35.347 115.784 90.483 1.653-12.286 3.653-24.614 7.872-36.206 4.619-12.697 12.491-24.953 23.168-33.003 9.442-7.115 20.973-10.986 34.309-9.194 8.867 1.189 16.479 4.638 22.904 9.637 6.615 5.146 11.939 11.933 16.06 19.561 5.734 4.971 24.48 18.086 23.003 25.543-.864 4.348-3.309 5.471-7.308 7.295-1.947.888-4.773 2.179-8.013 4.572z"/><path fill="#D3E3EE" d="M457.371 196.23c-12.929 9.556-25.344 16.308-28.969 32.959-4.387 20.156 17.448 49.679 15.903 85.419-2.959 68.448-47.715 109.184-127.672 109.246-38.577.031-80.166-6.598-110.121 4.228-32.777 11.845-53.401 40.53-73.315 76.29-28.21-2.567-37.645-18.049-33.755-47.462C57.767 507.563-.909 426.328 46.23 385.64c-29.235-14.674-45.164-37.606-36.973-75.51 51.692 64.758 126.054 58.511 211.948 16.144-74.679-12.021-127.065-49.83-135.918-138-25.54-55.061-28.825-108.863-2.727-160.999 2.61-5.214 8.971-19.367 15.692-19.101 2.293.09 4.403 1.885 6.303 5.646 7.88 24.403 21.997 47.438 44.723 67.386 72.175 63.352 141.416 44.682 204.719 152.894 2.737-17.982 3.971-37.186 10.148-54.162 7.72-21.219 25.209-40.896 49.859-37.583 15.917 2.139 27.14 12.91 34.25 26.651l12.395 10.742c15.639 12.705 9.517 7.024-3.278 16.482z"/><path fill="#5C6973" d="M457.371 196.229l-8.911 6.428-.205-33.652 12.394 10.742c15.639 12.706 9.517 7.026-3.278 16.482z"/><path fill="#B5C1CB" fill-rule="nonzero" d="M405.868 305.165a4.625 4.625 0 019.22.724c-1.568 19.387-6.958 35.707-16.096 48.996-9.171 13.334-22.058 23.517-38.595 30.591a4.619 4.619 0 01-3.617-8.498c14.899-6.373 26.456-15.472 34.617-27.337 8.192-11.911 13.035-26.723 14.471-44.476zM130.531 163.504a4.624 4.624 0 015.605-3.363 4.624 4.624 0 013.363 5.605c-3.133 12.491 2.377 25.072 12.337 35.349 6.81 7.025 15.685 12.973 25.363 17.135 9.664 4.153 20.059 6.505 29.931 6.358 14.348-.216 27.666-5.785 35.888-18.935a4.623 4.623 0 016.364-1.482 4.623 4.623 0 011.482 6.364c-10.108 16.169-26.28 23.012-43.627 23.272-11.229.167-22.924-2.452-33.689-7.079-10.749-4.622-20.659-11.282-28.331-19.197-12.087-12.473-18.686-28.083-14.686-44.027z"/><path fill="#B5C1CB" fill-rule="nonzero" d="M167.421 221.634a4.622 4.622 0 019.111 1.553c-1.571 9.104 1.168 18.39 6.706 26.65 5.697 8.494 14.299 15.889 24.263 20.987 9.936 5.081 21.193 7.849 32.22 7.106 11.265-.758 22.326-5.232 31.484-14.731a4.617 4.617 0 016.654 6.4c-10.91 11.316-24.094 16.646-37.524 17.55-12.728.858-25.66-2.304-37.028-8.118-11.342-5.802-21.175-14.28-27.735-24.061-6.811-10.159-10.151-21.751-8.151-33.336zM96.581 393.38a4.618 4.618 0 011.267-9.147c14.736 2.036 29.521 3.001 43.951 2.405 14.323-.59 28.341-2.726 41.669-6.886a4.623 4.623 0 013.444 8.545c-9.072 4.915-18.198 9.908-26.809 15.249-8.665 5.374-17.011 11.207-24.645 17.869a4.613 4.613 0 01-6.507-.434 4.613 4.613 0 01.434-6.508c8.057-7.031 16.81-13.152 25.871-18.772l1.616-.995c-4.86.57-9.768.947-14.711 1.151-15.032.619-30.357-.374-45.58-2.477z"/><circle fill="#5A6265" cx="423.278" cy="171.702" r="5.913"/></svg>